<svg width="32" height="32" viewBox="0 0 32 32" fill="none" xmlns="http://www.w3.org/2000/svg">
<circle cx="16" cy="16" r="16" fill="#4E6297"/>
<path d="M23.1996 11.0557C23.1996 9.85777 22.1426 8.80078 20.9447 8.80078H11.8545C10.6566 8.80078 9.59961 9.85777 9.59961 11.0557V20.1459C9.59961 21.3438 10.6566 22.4008 11.8545 22.4008H16.4348V17.2567H14.7437V15.0018H16.4348V14.0858C16.4348 12.5355 17.5623 11.1966 18.9716 11.1966H20.8038V13.4516H18.9716C18.7602 13.4516 18.5488 13.663 18.5488 14.0858V15.0018H20.8038V17.2567H18.5488V22.4008H20.9447C22.1426 22.4008 23.1996 21.3438 23.1996 20.1459V11.0557Z" fill="white"/>
</svg>
