<svg width="14" height="10" viewBox="0 0 14 10" fill="none" xmlns="http://www.w3.org/2000/svg">
<path d="M9.28032 4.8842L14.0001 7.86794V1.77445L9.28032 4.8842Z" fill="#594E4B"/>
<path d="M0 1.77445V7.86794L4.71974 4.8842L0 1.77445Z" fill="#594E4B"/>
<path d="M13.125 0H0.875041C0.438416 0 0.091917 0.3255 0.0262921 0.744624L7.00003 5.33924L13.9738 0.744624C13.9081 0.3255 13.5616 0 13.125 0Z" fill="#594E4B"/>
<path d="M8.47887 5.41271L7.24075 6.2282C7.16725 6.27633 7.08412 6.29995 7.00012 6.29995C6.91612 6.29995 6.833 6.27633 6.7595 6.2282L5.52137 5.41183L0.0281325 8.88645C0.0955074 9.30207 0.440257 9.62495 0.875131 9.62495H13.1251C13.56 9.62495 13.9047 9.30207 13.9721 8.88645L8.47887 5.41271Z" fill="#594E4B"/>
</svg>
