<svg width="19" height="14" viewBox="0 0 19 14" fill="none" xmlns="http://www.w3.org/2000/svg">
<path d="M18.5796 5.41313C18.5796 5.02525 18.515 4.57273 18.515 4.05556C18.4503 3.53838 18.3856 3.02121 18.321 2.56868C18.1917 2.05151 17.9978 1.66364 17.6099 1.34041C17.2867 1.01717 16.8341 0.823228 16.3816 0.758582C14.8947 0.564643 12.6968 0.5 9.72303 0.5C6.74929 0.5 4.48665 0.564643 3.06443 0.758582C2.61191 0.823228 2.15938 1.01717 1.83615 1.34041C1.51292 1.66364 1.25433 2.05151 1.12504 2.56868C0.995744 3.02121 0.931105 3.47374 0.931105 4.05556C0.866459 4.57273 0.866455 5.02525 0.866455 5.41313C0.866455 5.801 0.866455 6.25353 0.866455 6.9C0.866455 7.54646 0.866455 8.06363 0.866455 8.38687C0.866455 8.77475 0.931105 9.22727 0.931105 9.74445C0.995752 10.2616 1.06039 10.7788 1.12504 11.2313C1.25433 11.7485 1.44827 12.1364 1.83615 12.4596C2.15938 12.7828 2.61191 12.9768 3.06443 13.0414C4.5513 13.2353 6.74929 13.3 9.72303 13.3C12.6968 13.3 14.9594 13.2353 16.3816 13.0414C16.8341 12.9768 17.2867 12.7828 17.6099 12.4596C17.9331 12.1364 18.1917 11.7485 18.321 11.2313C18.4503 10.7788 18.515 10.3263 18.515 9.74445C18.5796 9.22727 18.5796 8.77475 18.5796 8.38687C18.5796 7.99899 18.5796 7.54646 18.5796 6.9C18.5796 6.25353 18.5796 5.73636 18.5796 5.41313ZM13.1493 7.41717L8.04222 10.5848C7.97757 10.6495 7.84828 10.7141 7.71898 10.7141C7.58969 10.7141 7.52504 10.7141 7.39575 10.6495C7.20181 10.5202 7.07252 10.3263 7.07252 10.0677V3.66767C7.07252 3.40909 7.20181 3.21515 7.39575 3.08586C7.58969 2.95657 7.84828 2.95657 8.04222 3.08586L13.1493 6.25353C13.3432 6.38282 13.4725 6.57677 13.4725 6.77071C13.4725 6.96464 13.3432 7.28788 13.1493 7.41717Z" fill="#A09999"/>
</svg>
