<svg width="11" height="8" viewBox="0 0 11 8" fill="none" xmlns="http://www.w3.org/2000/svg">
<path d="M5.33068 0.0672495L0.0698334 5.09569C0.0253552 5.1382 -1.22556e-07 5.19625 -1.19898e-07 5.25706L-9.99986e-09 7.77123C-5.96385e-09 7.86356 0.0583553 7.94722 0.147783 7.98242C0.23721 8.01763 0.339572 7.99796 0.408442 7.93305L5.50001 3.06599L10.5916 7.93305C10.66 7.99843 10.7628 8.01808 10.8522 7.98242C10.9416 7.94677 11 7.86356 11 7.77123L11 5.25706C11 5.19627 10.9746 5.1382 10.9302 5.09524L5.66929 0.0667994C5.57556 -0.022341 5.42444 -0.022341 5.33068 0.0672495Z" fill="#A23228"/>
</svg>
