<svg width="11" height="8" viewBox="0 0 11 8" fill="none" xmlns="http://www.w3.org/2000/svg">
<path d="M5.33068 7.93275L0.0698334 2.90431C0.0253552 2.8618 -1.22556e-07 2.80375 -1.19898e-07 2.74294L-9.99986e-09 0.22877C-5.96385e-09 0.136437 0.0583553 0.0527822 0.147783 0.017576C0.23721 -0.0176301 0.339572 0.00204076 0.408442 0.0669461L5.50001 4.93401L10.5916 0.0669465C10.66 0.0015698 10.7628 -0.0180797 10.8522 0.0175765C10.9416 0.0532326 11 0.136437 11 0.228771L11 2.74294C11 2.80373 10.9746 2.8618 10.9302 2.90476L5.66929 7.9332C5.57556 8.02234 5.42444 8.02234 5.33068 7.93275Z" fill="white"/>
</svg>
