<svg width="21" height="13" viewBox="0 0 21 13" fill="none" xmlns="http://www.w3.org/2000/svg">
<path d="M20.6727 11.376C20.6727 11.293 20.5897 11.293 20.5897 11.21C20.2576 10.5458 19.5104 9.71554 18.5141 8.80229C18.016 8.38718 17.7669 8.05508 17.6009 7.88903C17.3518 7.55694 17.3518 7.30788 17.4348 6.97579C17.5178 6.72672 17.8499 6.3116 18.4311 5.56439C18.7632 5.14928 18.9292 4.90021 19.1783 4.65115C20.4236 2.99069 21.0048 1.91138 20.8387 1.41324L20.7557 1.33023C20.6727 1.24721 20.5897 1.16419 20.4236 1.16419C20.2576 1.08116 20.0085 1.08116 19.7595 1.16419H16.6046C16.5216 1.16419 16.5216 1.16419 16.3555 1.16419C16.2725 1.16419 16.1895 1.16419 16.1895 1.16419H16.1065H16.0234L15.9404 1.2472C15.8574 1.33022 15.8574 1.33022 15.8574 1.41324C15.5253 2.3265 15.1102 3.0737 14.6951 3.90393C14.446 4.31905 14.1969 4.73417 13.9479 5.06626C13.6988 5.39835 13.5327 5.64742 13.3667 5.81346C13.2006 5.97951 13.0346 6.06253 12.9516 6.22858C12.8685 6.3116 12.7025 6.39463 12.7025 6.3116C12.6195 6.3116 12.5365 6.3116 12.5365 6.22858C12.4534 6.14555 12.3704 6.06253 12.2874 5.97951C12.2044 5.89648 12.2044 5.73044 12.1213 5.56439C12.1213 5.39834 12.1213 5.2323 12.1213 5.14928C12.1213 5.06625 12.1213 4.81719 12.1213 4.65115C12.1213 4.40208 12.1213 4.23603 12.1213 4.153C12.1213 3.90393 12.1213 3.57185 12.1213 3.23976C12.1213 2.90767 12.1213 2.65859 12.1213 2.49254C12.1213 2.3265 12.1213 2.07743 12.1213 1.91139C12.1213 1.66232 12.1213 1.49627 12.1213 1.41324C12.1213 1.33022 12.0383 1.16418 12.0383 1.08116C11.9553 0.998135 11.8723 0.91511 11.7893 0.832087C11.7062 0.749064 11.5402 0.749066 11.4572 0.666043C11.0421 0.58302 10.5439 0.5 9.96276 0.5C8.6344 0.5 7.72114 0.583025 7.38905 0.749071C7.223 0.832094 7.05696 0.915112 6.97393 1.08116C6.80789 1.2472 6.80788 1.33023 6.8909 1.33023C7.30602 1.41325 7.63812 1.57929 7.80416 1.82836L7.88719 1.99442C7.97021 2.07744 7.9702 2.24348 8.05322 2.49254C8.13624 2.74161 8.13625 2.99068 8.13625 3.32277C8.13625 3.82091 8.13625 4.31905 8.13625 4.65115C8.13625 5.06626 8.05322 5.31532 8.05322 5.56439C8.05322 5.81346 7.97021 5.97951 7.88719 6.06253C7.80417 6.22858 7.80416 6.3116 7.72113 6.3116C7.72113 6.3116 7.72113 6.39462 7.63811 6.39462C7.55508 6.39462 7.47207 6.47765 7.30602 6.47765C7.223 6.47765 7.05696 6.39463 6.97393 6.3116C6.80789 6.22858 6.64184 6.06254 6.55882 5.89649C6.39277 5.73044 6.22672 5.48137 6.06068 5.14928C5.89463 4.81718 5.64555 4.4851 5.47951 3.98696L5.31347 3.65487C5.23045 3.48883 5.06441 3.15673 4.89836 2.74162C4.73231 2.3265 4.56626 1.99442 4.40022 1.5793C4.31719 1.41325 4.23418 1.33022 4.15116 1.2472H4.06813C4.06813 1.2472 3.9851 1.16419 3.90207 1.16419C3.81905 1.16419 3.73604 1.08116 3.65302 1.08116H0.664186C0.332094 1.08116 0.166051 1.16418 0.083028 1.2472L0 1.33023C0 1.33023 0 1.41325 0 1.49627C0 1.5793 5.06608e-06 1.66231 0.083028 1.82836C0.498143 2.82463 0.996278 3.82091 1.49442 4.81719C1.99255 5.73044 2.4907 6.56067 2.82279 7.14183C3.2379 7.72299 3.56999 8.30415 3.9851 8.80229C4.40022 9.30043 4.64928 9.63252 4.7323 9.79856C4.89835 9.96461 4.98137 10.0476 5.06439 10.1307L5.31347 10.3797C5.47952 10.5458 5.72858 10.7948 6.06068 11.0439C6.39277 11.293 6.80788 11.542 7.22299 11.7911C7.63811 12.0402 8.13625 12.2062 8.63439 12.3723C9.21555 12.5383 9.71368 12.6213 10.2118 12.5383H11.4572C11.7062 12.5383 11.8723 12.4553 12.0383 12.2893L12.1213 12.2062C12.1213 12.1232 12.2044 12.1232 12.2044 12.0402C12.2044 11.9572 12.2044 11.8741 12.2044 11.7081C12.2044 11.376 12.2044 11.1269 12.2874 10.8779C12.3704 10.6288 12.3704 10.4628 12.4535 10.2967C12.5365 10.1307 12.6195 10.0476 12.7025 9.96461C12.7855 9.88158 12.8686 9.79856 12.8686 9.79856H12.9516C13.1176 9.71554 13.3667 9.79856 13.5327 9.96461C13.7818 10.1307 14.0309 10.3797 14.1969 10.6288C14.363 10.8779 14.612 11.1269 14.9441 11.459C15.2762 11.7911 15.5253 12.0402 15.6913 12.1232L15.9404 12.2893C16.1064 12.3723 16.2725 12.4553 16.5216 12.5383C16.7706 12.6213 16.9367 12.6213 17.1027 12.6213L19.9255 12.5383C20.1746 12.5383 20.4236 12.4553 20.5897 12.3723C20.7557 12.2893 20.8387 12.2062 20.8387 12.0402C20.8387 11.9572 20.8387 11.7911 20.8387 11.7081C20.6727 11.542 20.6727 11.459 20.6727 11.376Z" fill="#A09999"/>
</svg>
