<svg width="32" height="32" viewBox="0 0 32 32" fill="none" xmlns="http://www.w3.org/2000/svg">
<circle cx="16" cy="16" r="16" fill="url(#paint0_linear)"/>
<path d="M21.2642 9.59961H11.535C10.4365 9.59961 9.59961 10.4365 9.59961 11.535V21.2642C9.59961 22.3627 10.4365 23.1996 11.535 23.1996H21.2642C22.3627 23.1996 23.1996 22.3627 23.1996 21.2642V11.535C23.1996 10.4365 22.3627 9.59961 21.2642 9.59961ZM16.3996 20.4796C18.6488 20.4796 20.4796 18.7011 20.4796 16.5565C20.4796 16.1904 20.4273 15.7719 20.3227 15.4581H21.4735V21.0027C21.4735 21.2642 21.2642 21.5258 20.9504 21.5258H11.8488C11.5873 21.5258 11.3258 21.3165 11.3258 21.0027V15.4058H12.5288C12.4242 15.7719 12.3719 16.1381 12.3719 16.5042C12.3196 18.7011 14.1504 20.4796 16.3996 20.4796ZM16.3996 18.9104C14.935 18.9104 13.7842 17.7596 13.7842 16.3473C13.7842 14.935 14.935 13.7842 16.3996 13.7842C17.8642 13.7842 19.015 14.935 19.015 16.3473C19.015 17.8119 17.8642 18.9104 16.3996 18.9104ZM21.4212 13.3135C21.4212 13.6273 21.1596 13.8888 20.8458 13.8888H19.3811C19.0673 13.8888 18.8058 13.6273 18.8058 13.3135V11.9011C18.8058 11.5873 19.0673 11.3258 19.3811 11.3258H20.8458C21.1596 11.3258 21.4212 11.5873 21.4212 11.9011V13.3135Z" fill="white"/>
<defs>
<linearGradient id="paint0_linear" x1="6.8" y1="28.4" x2="28" y2="6.4" gradientUnits="userSpaceOnUse">
<stop stop-color="#EEA054"/>
<stop offset="0.502762" stop-color="#D64763"/>
<stop offset="1" stop-color="#B62A99"/>
</linearGradient>
</defs>
</svg>
