<svg width="30" height="30" viewBox="0 0 30 30" fill="none" xmlns="http://www.w3.org/2000/svg">
<g filter="url(#filter0_d)">
<rect width="27" height="27" rx="2" fill="#A23228"/>
</g>
<g filter="url(#filter1_d)">
<path d="M19.1655 7.90858L11.6791 7.78595C11.6131 7.7876 11.5486 7.81544 11.5002 7.86382L9.50018 9.86383C9.42673 9.93728 9.40239 10.046 9.43905 10.1387C9.47572 10.2314 9.56539 10.2898 9.66683 10.2879L16.9025 10.4165L16.7128 17.9703C16.7103 18.0718 16.769 18.1618 16.8621 18.1981C16.9551 18.2344 17.0635 18.2104 17.1369 18.137L19.1369 16.137C19.1853 16.0886 19.2132 16.0241 19.2152 15.9577L19.4107 8.1531C19.4139 8.0144 19.3046 7.90511 19.1655 7.90858Z" fill="white"/>
</g>
<defs>
<filter id="filter0_d" x="0" y="0" width="30" height="30" filterUnits="userSpaceOnUse" color-interpolation-filters="sRGB">
<feFlood flood-opacity="0" result="BackgroundImageFix"/>
<feColorMatrix in="SourceAlpha" type="matrix" values="0 0 0 0 0 0 0 0 0 0 0 0 0 0 0 0 0 0 127 0"/>
<feOffset dx="3" dy="3"/>
<feColorMatrix type="matrix" values="0 0 0 0 0.4625 0 0 0 0 0.112213 0 0 0 0 0.0809375 0 0 0 1 0"/>
<feBlend mode="normal" in2="BackgroundImageFix" result="effect1_dropShadow"/>
<feBlend mode="normal" in="SourceGraphic" in2="effect1_dropShadow" result="shape"/>
</filter>
<filter id="filter1_d" x="9.42212" y="7.78595" width="11.1136" height="11.1789" filterUnits="userSpaceOnUse" color-interpolation-filters="sRGB">
<feFlood flood-opacity="0" result="BackgroundImageFix"/>
<feColorMatrix in="SourceAlpha" type="matrix" values="0 0 0 0 0 0 0 0 0 0 0 0 0 0 0 0 0 0 127 0"/>
<feOffset dx="0.75" dy="0.375"/>
<feGaussianBlur stdDeviation="0.1875"/>
<feColorMatrix type="matrix" values="0 0 0 0 0 0 0 0 0 0 0 0 0 0 0 0 0 0 0.4 0"/>
<feBlend mode="normal" in2="BackgroundImageFix" result="effect1_dropShadow"/>
<feBlend mode="normal" in="SourceGraphic" in2="effect1_dropShadow" result="shape"/>
</filter>
</defs>
</svg>
