<svg width="32" height="32" viewBox="0 0 32 32" fill="none" xmlns="http://www.w3.org/2000/svg">
<circle cx="16" cy="16" r="16" fill="#7294C7"/>
<path d="M23.8448 20.0914C23.8448 20.025 23.7784 20.025 23.7784 19.9586C23.5127 19.4272 22.915 18.7631 22.1179 18.0325C21.7194 17.7004 21.5202 17.4347 21.3873 17.3019C21.1881 17.0362 21.1881 16.8369 21.2545 16.5713C21.3209 16.372 21.5866 16.0399 22.0515 15.4421C22.3172 15.11 22.45 14.9108 22.6493 14.7115C23.6455 13.3832 24.1105 12.5197 23.9776 12.1212L23.9112 12.0548C23.8448 11.9884 23.7784 11.922 23.6455 11.922C23.5127 11.8556 23.3135 11.8556 23.1142 11.922H20.5903C20.5239 11.922 20.5239 11.922 20.3911 11.922C20.3246 11.922 20.2582 11.922 20.2582 11.922H20.1918H20.1254L20.059 11.9884C19.9925 12.0548 19.9925 12.0548 19.9925 12.1212C19.7269 12.8518 19.3948 13.4496 19.0627 14.1138C18.8634 14.4459 18.6642 14.778 18.4649 15.0436C18.2657 15.3093 18.1328 15.5086 18 15.6414C17.8672 15.7742 17.7343 15.8406 17.6679 15.9735C17.6015 16.0399 17.4686 16.1063 17.4686 16.0399C17.4022 16.0399 17.3358 16.0399 17.3358 15.9735C17.2694 15.9071 17.203 15.8406 17.1366 15.7742C17.0701 15.7078 17.0701 15.575 17.0037 15.4421C17.0037 15.3093 17.0037 15.1765 17.0037 15.11C17.0037 15.0436 17.0037 14.8444 17.0037 14.7115C17.0037 14.5123 17.0037 14.3794 17.0037 14.313C17.0037 14.1138 17.0037 13.8481 17.0037 13.5824C17.0037 13.3168 17.0037 13.1175 17.0037 12.9847C17.0037 12.8518 17.0037 12.6526 17.0037 12.5197C17.0037 12.3205 17.0037 12.1876 17.0037 12.1212C17.0037 12.0548 16.9373 11.922 16.9373 11.8556C16.8709 11.7891 16.8045 11.7227 16.738 11.6563C16.6716 11.5899 16.5388 11.5899 16.4724 11.5235C16.1403 11.457 15.7418 11.3906 15.2769 11.3906C14.2142 11.3906 13.4836 11.457 13.2179 11.5899C13.085 11.6563 12.9522 11.7227 12.8858 11.8556C12.753 11.9884 12.7529 12.0548 12.8194 12.0548C13.1515 12.1212 13.4171 12.2541 13.55 12.4533L13.6164 12.5862C13.6828 12.6526 13.6828 12.7854 13.7492 12.9847C13.8156 13.1839 13.8156 13.3832 13.8156 13.6488C13.8156 14.0474 13.8156 14.4459 13.8156 14.7115C13.8156 15.0436 13.7492 15.2429 13.7492 15.4421C13.7492 15.6414 13.6828 15.7742 13.6164 15.8407C13.55 15.9735 13.55 16.0399 13.4835 16.0399C13.4835 16.0399 13.4835 16.1063 13.4171 16.1063C13.3507 16.1063 13.2843 16.1727 13.1515 16.1727C13.085 16.1727 12.9522 16.1063 12.8858 16.0399C12.753 15.9735 12.6201 15.8407 12.5537 15.7078C12.4209 15.575 12.288 15.3757 12.1552 15.11C12.0223 14.8444 11.8231 14.5787 11.6902 14.1802L11.5574 13.9145C11.491 13.7817 11.3582 13.516 11.2253 13.1839C11.0925 12.8518 10.9597 12.5862 10.8268 12.2541C10.7604 12.1212 10.694 12.0548 10.6276 11.9884H10.5611C10.5611 11.9884 10.4947 11.922 10.4283 11.922C10.3619 11.922 10.2955 11.8556 10.2291 11.8556H7.83799C7.57232 11.8556 7.43948 11.922 7.37306 11.9884L7.30664 12.0548C7.30664 12.0548 7.30664 12.1212 7.30664 12.1876C7.30664 12.2541 7.30664 12.3205 7.37306 12.4533C7.70515 13.2503 8.10366 14.0474 8.50217 14.8444C8.90068 15.575 9.2992 16.2392 9.56487 16.7041C9.89696 17.169 10.1626 17.6339 10.4947 18.0325C10.8268 18.431 11.0261 18.6966 11.0925 18.8295C11.2253 18.9623 11.2917 19.0287 11.3582 19.0951L11.5574 19.2944C11.6903 19.4272 11.8895 19.6265 12.1552 19.8258C12.4209 20.025 12.7529 20.2243 13.085 20.4235C13.4171 20.6228 13.8156 20.7556 14.2142 20.8884C14.6791 21.0213 15.0776 21.0877 15.4761 21.0213H16.4724C16.6716 21.0213 16.8045 20.9549 16.9373 20.822L17.0037 20.7556C17.0037 20.6892 17.0701 20.6892 17.0701 20.6228C17.0701 20.5564 17.0701 20.4899 17.0701 20.3571C17.0701 20.0914 17.0701 19.8922 17.1366 19.6929C17.203 19.4937 17.203 19.3608 17.2694 19.228C17.3358 19.0952 17.4022 19.0287 17.4686 18.9623C17.5351 18.8959 17.6015 18.8295 17.6015 18.8295H17.6679C17.8007 18.7631 18 18.8295 18.1328 18.9623C18.3321 19.0951 18.5313 19.2944 18.6642 19.4937C18.797 19.6929 18.9963 19.8922 19.262 20.1578C19.5276 20.4235 19.7269 20.6228 19.8597 20.6892L20.059 20.822C20.1918 20.8884 20.3246 20.9549 20.5239 21.0213C20.7232 21.0877 20.856 21.0877 20.9888 21.0877L23.2471 21.0213C23.4463 21.0213 23.6456 20.9549 23.7784 20.8884C23.9112 20.822 23.9776 20.7556 23.9776 20.6228C23.9776 20.5564 23.9776 20.4235 23.9776 20.3571C23.8448 20.2243 23.8448 20.1578 23.8448 20.0914Z" fill="white"/>
</svg>
