<svg width="32" height="32" viewBox="0 0 32 32" fill="none" xmlns="http://www.w3.org/2000/svg">
<circle cx="16" cy="16" r="16" fill="#F40000"/>
<path d="M22.9703 15.1297C22.9703 14.8194 22.9186 14.4574 22.9186 14.0437C22.8669 13.6299 22.8152 13.2162 22.7634 12.8542C22.66 12.4404 22.5049 12.1301 22.1945 11.8715C21.936 11.613 21.5739 11.4578 21.2119 11.4061C20.0224 11.2509 18.2641 11.1992 15.8851 11.1992C13.5061 11.1992 11.696 11.2509 10.5582 11.4061C10.1962 11.4578 9.83415 11.613 9.57556 11.8715C9.31698 12.1301 9.1101 12.4404 9.00667 12.8542C8.90324 13.2162 8.85153 13.5782 8.85153 14.0437C8.79981 14.4574 8.7998 14.8194 8.7998 15.1297C8.7998 15.44 8.7998 15.802 8.7998 16.3192C8.7998 16.8364 8.7998 17.2501 8.7998 17.5087C8.7998 17.819 8.85153 18.181 8.85153 18.5948C8.90324 19.0085 8.95495 19.4222 9.00667 19.7843C9.1101 20.198 9.26526 20.5083 9.57556 20.7669C9.83415 21.0255 10.1962 21.1806 10.5582 21.2323C11.7477 21.3875 13.5061 21.4392 15.8851 21.4392C18.2641 21.4392 20.0741 21.3875 21.2119 21.2323C21.5739 21.1806 21.936 21.0255 22.1945 20.7669C22.4531 20.5083 22.66 20.198 22.7634 19.7843C22.8669 19.4222 22.9186 19.0602 22.9186 18.5948C22.9703 18.181 22.9703 17.819 22.9703 17.5087C22.9703 17.1984 22.9703 16.8364 22.9703 16.3192C22.9703 15.802 22.9703 15.3883 22.9703 15.1297ZM18.6261 16.733L14.5404 19.2671C14.4887 19.3188 14.3853 19.3705 14.2818 19.3705C14.1784 19.3705 14.1267 19.3705 14.0232 19.3188C13.8681 19.2154 13.7647 19.0602 13.7647 18.8534V13.7334C13.7647 13.5265 13.8681 13.3713 14.0232 13.2679C14.1784 13.1645 14.3853 13.1645 14.5404 13.2679L18.6261 15.802C18.7812 15.9055 18.8847 16.0606 18.8847 16.2158C18.8847 16.3709 18.7812 16.6295 18.6261 16.733Z" fill="white"/>
</svg>
