<svg width="18" height="18" viewBox="0 0 18 18" fill="none" xmlns="http://www.w3.org/2000/svg">
<path d="M17.9975 17.4415L17.2945 5.02008C17.2787 4.74091 17.0477 4.52257 16.768 4.52257H15.3694V2.34388L15.142 2.00306L13.9633 0.234814C13.8654 0.0881582 13.7007 0 13.5245 0H7.89999C7.72367 0 7.55903 0.0881582 7.46126 0.234814L6.28939 1.99249L6.05512 2.34388V4.52257H4.65654C4.37682 4.52257 4.14585 4.74091 4.13006 5.02008L3.91996 8.73206H5.88279C6.17404 8.73206 6.41009 8.96825 6.41009 9.25936C6.41009 9.55061 6.17404 9.78666 5.88279 9.78666H3.86023L3.80049 10.8413H7.99199C8.28324 10.8413 8.51929 11.0773 8.51929 11.3686C8.51929 11.6598 8.28324 11.8959 7.99199 11.8959H3.74076L3.68116 12.9505H5.88279C6.17404 12.9505 6.41009 13.1865 6.41009 13.4778C6.41009 13.7689 6.17404 14.0051 5.88279 14.0051H3.62143L3.42685 17.4415C3.41875 17.5863 3.47052 17.728 3.57007 17.8335C3.66977 17.9388 3.80832 17.9986 3.95333 17.9986H17.4711C17.6161 17.9986 17.7546 17.9388 17.8543 17.8335C17.9539 17.728 18.0056 17.5862 17.9975 17.4415ZM8.77883 2.34402H12.6457V4.52257H8.77883V2.34402Z" fill="white"/>
<path d="M0.527302 12.9503C0.23605 12.9503 0 13.1865 0 13.4776C0 13.7689 0.23605 14.0049 0.527302 14.0049H3.62149L3.68122 12.9503H0.527302Z" fill="white"/>
<path d="M2.63643 10.8413C2.34518 10.8413 2.10913 11.0774 2.10913 11.3686C2.10913 11.6599 2.34518 11.8959 2.63643 11.8959H3.74074L3.80048 10.8413H2.63643Z" fill="white"/>
<path d="M0.527302 8.73206C0.23605 8.73206 0 8.96811 0 9.25936C0 9.55061 0.23605 9.78666 0.527302 9.78666H3.86029L3.92002 8.73206H0.527302Z" fill="white"/>
</svg>
